<?xml version="1.0" encoding="utf-8"?>
<!-- Generator: Adobe Illustrator 25.0.1, SVG Export Plug-In . SVG Version: 6.00 Build 0)  -->
<svg version="1.1" id="Layer_1" xmlns="http://www.w3.org/2000/svg" xmlns:xlink="http://www.w3.org/1999/xlink" x="0px" y="0px"
	 viewBox="0 0 360 255" style="enable-background:new 0 0 360 255;" xml:space="preserve">
<style type="text/css">
	.st0{opacity:0.15;}
	.st1{fill:#282525;}
	.st2{opacity:0.9;}
	.st3{fill:#D9DCDD;}
	.st4{fill:#0BE8F9;}
	.st5{fill:none;stroke:#000000;stroke-width:0.3;stroke-miterlimit:10;}
	.st6{fill:url(#SVGID_1_);}
	.st7{fill:url(#SVGID_2_);}
	.st8{fill:url(#SVGID_3_);}
	.st9{fill:#6A8189;}
	.st10{fill:#06B1F4;}
	.st11{fill:#05E5E5;}
</style>
<g>
	<g class="st0">
		<g>
			<path class="st1" d="M51,47.4v34.2c0.9,4.3,3.4,7.7,6.8,11.1l6,5.1c31.7,24.8,65.1,47.9,98.5,71.1l5.1,2.6
				c1.7,0.9,4.3,1.7,6.8,1.7l0,0c4.3,0,7.7-0.9,11.1-3.4l30.8-21.4c9.4-7.7,20.5-14.6,30.8-23.1c3.4-2.6,6-5.1,9.4-8.6
				c7.7-9.4,12-19.7,13.7-31.7c0-3.4,0-8.6,0-12.8v-24c0-0.9,0-0.9,0-1.7l0,0c0,4.3-0.9,9.4-2.6,13.7c-3.4,12.8-11.1,23.1-21.4,30.8
				c-19.7,14.6-39.4,28.3-59.1,41.9l-4.3,2.6c-2.6,0.9-4.3,1.7-6.8,1.7h-0.9c-0.9,0-2.6,0-3.4,0l-2.6-0.9l-6.8-4.3
				c-24-16.3-47.1-33.4-70.2-50.5L61.3,58.6L57,54.3C52.7,53.4,51.9,50.9,51,47.4v-0.9l0,0l0,0V47.4z"/>
			<g>
				<g class="st2">
					<path class="st3" d="M51,47.4v34.2c0.9,4.3,3.4,7.7,6.8,11.1l6,5.1c31.7,24.8,65.1,47.9,98.5,71.1l5.1,2.6
						c1.7,0.9,4.3,1.7,6.8,1.7l0,0c4.3,0,7.7-0.9,11.1-3.4l30.8-21.4c9.4-7.7,20.5-14.6,30.8-23.1c3.4-2.6,6-5.1,9.4-8.6
						c7.7-9.4,12-19.7,13.7-31.7c0-3.4,0-8.6,0-12.8v-24c0-0.9,0-0.9,0-1.7l0,0c0,4.3-0.9,9.4-2.6,13.7
						c-3.4,12.8-11.1,23.1-21.4,30.8c-19.7,14.6-39.4,28.3-59.1,41.9l-4.3,2.6c-2.6,0.9-4.3,1.7-6.8,1.7h-0.9c-0.9,0-2.6,0-3.4,0
						l-2.6-0.9l-6.8-4.3c-24-16.3-47.1-33.4-70.2-50.5L61.3,58.6L57,54.3C52.7,53.4,51.9,50.9,51,47.4v-0.9l0,0l0,0V47.4z"/>
				</g>
			</g>
		</g>
		<g>
			<path class="st1" d="M268.4,141.6c0,0,0-2.6,1.7-4.3V157c0,3.4,0,7.7-0.9,11.1l0,0c-1.7,12.8-8.6,25.7-18.8,34.2l-8.6,7.7
				c-10.3,7.7-21.4,15.4-31.7,23.1l0,0l-23.1,16.3l-1.7,0.9l0,0c-2.6,1.7-6,2.6-8.6,2.6l0,0c-1.7,0-3.4,0-5.1-0.9l0,0
				c-2.6-0.9-4.3-1.7-6.8-3.4l0,0l-69.3-48.8l-34.2-25.7l0,0c-4.3-2.6-6.8-6.8-6.8-12c0-1.7,0-2.6,0-4.3v-24c0,0.9,0.9,1.7,1.7,2.6
				l0,0c1.7,1.7,3.4,3.4,5.1,5.1l22.3,17.1l0,0c21.4,16.3,43.7,31.7,65.9,47.1l0,0l14.6,10.3l0,0l6,3.4l0,0c2.6,0.9,5.1,1.7,7.7,0.9
				l0,0c2.6,0,5.1-0.9,7.7-2.6l2.6-1.7l0,0l57.4-41.1l0,0C255.6,166.4,264.2,154.4,268.4,141.6L268.4,141.6z"/>
			<g>
				<g class="st2">
					<path class="st3" d="M268.4,141.6c0,0,0-2.6,1.7-4.3V157c0,3.4,0,7.7-0.9,11.1l0,0c-1.7,12.8-8.6,25.7-18.8,34.2l-8.6,7.7
						c-10.3,7.7-21.4,15.4-31.7,23.1l0,0l-23.1,16.3l-1.7,0.9l0,0c-2.6,1.7-6,2.6-8.6,2.6l0,0c-1.7,0-3.4,0-5.1-0.9l0,0
						c-2.6-0.9-4.3-1.7-6.8-3.4l0,0l-69.3-48.8l-34.2-25.7l0,0c-4.3-2.6-6.8-6.8-6.8-12c0-1.7,0-2.6,0-4.3v-24
						c0,0.9,0.9,1.7,1.7,2.6l0,0c1.7,1.7,3.4,3.4,5.1,5.1l22.3,17.1l0,0c21.4,16.3,43.7,31.7,65.9,47.1l0,0l14.6,10.3l0,0l6,3.4l0,0
						c2.6,0.9,5.1,1.7,7.7,0.9l0,0c2.6,0,5.1-0.9,7.7-2.6l2.6-1.7l0,0l57.4-41.1l0,0C255.6,166.4,264.2,154.4,268.4,141.6
						L268.4,141.6z"/>
				</g>
			</g>
		</g>
		<path class="st4" d="M119.5,30.3l-16.3,11.1c-0.9,0.9-1.7,2.6,0,3.4l1.7,0.9l21.4,15.4c0,0,21.4-12,26.5-13.7
			c8.6-3.4,17.1-6,25.7-6c6,0,12,1.7,18,2.6c7.7,2.6,14.6,5.1,21.4,10.3l6,4.3l0,0h1.7h0.9l0,0c1.7-2.6,2.6-4.3,3.4-6.8
			c0-1.7,0-4.3,0-6c0-2.6-0.9-6-1.7-8.6c-0.9-2.6-2.6-5.1-5.1-6.8l-3.4-2.6c-5.1-5.1-11.1-8.6-17.1-12l-5.1-2.6
			C188.8,9.8,180.3,8,170.9,8C152,10.6,134.9,18.3,119.5,30.3z"/>
		<path class="st5" d="M119.5,30.3l-16.3,11.1c-0.9,0.9-1.7,2.6,0,3.4l1.7,0.9l21.4,15.4c0,0,21.4-12,26.5-13.7
			c8.6-3.4,17.1-6,25.7-6c6,0,12,1.7,18,2.6c7.7,2.6,14.6,5.1,21.4,10.3l6,4.3l0,0h1.7h0.9l0,0c1.7-2.6,2.6-4.3,3.4-6.8
			c0-1.7,0-4.3,0-6c0-2.6-0.9-6-1.7-8.6c-0.9-2.6-2.6-5.1-5.1-6.8l-3.4-2.6c-5.1-5.1-11.1-8.6-17.1-12l-5.1-2.6
			C188.8,9.8,180.3,8,170.9,8C152,10.6,134.9,18.3,119.5,30.3z"/>
	</g>
	<g>
		<g>
			
				<linearGradient id="SVGID_1_" gradientUnits="userSpaceOnUse" x1="-3626.3408" y1="233.1252" x2="-3407.4678" y2="136.1776" gradientTransform="matrix(1 0 0 -1 3695.9099 275.19)">
				<stop  offset="0" style="stop-color:#EDF7FF"/>
				<stop  offset="1" style="stop-color:#F8FCFF"/>
			</linearGradient>
			<path class="st6" d="M55.3,75.7c0,1.7,0,3.4,0,5.1c0.9,4.3,2.6,7.7,6,10.3l6,5.1c31.7,24,64.2,47.1,95.9,69.3l5.1,2.6
				c2.6,0.9,4.3,1.7,6.8,1.7l0,0c3.4,0,7.7-0.9,10.3-3.4l30-21.4c9.4-7.7,19.7-14.6,30-22.3c3.4-2.6,6-5.1,8.6-8.6
				c7.7-8.6,12-19.7,13.7-30.8c0-3.4,0-7.7,0-12.8V48.3v-0.9l0,0c0,4.3-0.9,8.6-1.7,12.8c-4.3,12-11.1,22.3-21.4,30
				c-19.7,13.7-37.7,28.3-57.4,41.1l-4.3,2.6c-2.6,0.9-4.3,1.7-6.8,1.7h-0.9c-0.9,0-2.6,0-3.4,0c-0.9,0-1.7-0.9-2.6-0.9l-6.8-4.3
				c-23.1-16.3-46.2-32.5-69.3-48.8L63,58.6l-4.3-4.3c-1.7-1.7-3.4-4.3-3.4-7.7v-0.9l0,0V75.7z"/>
			<g>
				<g class="st2">
					<path class="st3" d="M55.3,75.7c0,1.7,0,3.4,0,5.1c0.9,4.3,2.6,7.7,6,10.3l6,5.1c31.7,24,64.2,47.1,95.9,69.3l5.1,2.6
						c2.6,0.9,4.3,1.7,6.8,1.7l0,0c3.4,0,7.7-0.9,10.3-3.4l30-21.4c9.4-7.7,19.7-14.6,30-22.3c3.4-2.6,6-5.1,8.6-8.6
						c7.7-8.6,12-19.7,13.7-30.8c0-3.4,0-7.7,0-12.8V48.3v-0.9l0,0c0,4.3-0.9,8.6-1.7,12.8c-4.3,12-11.1,22.3-21.4,30
						c-19.7,13.7-37.7,28.3-57.4,41.1l-4.3,2.6c-2.6,0.9-4.3,1.7-6.8,1.7h-0.9c-0.9,0-2.6,0-3.4,0c-0.9,0-1.7-0.9-2.6-0.9l-6.8-4.3
						c-23.1-16.3-46.2-32.5-69.3-48.8L63,58.6l-4.3-4.3c-1.7-1.7-3.4-4.3-3.4-7.7v-0.9l0,0V75.7z"/>
				</g>
			</g>
		</g>
		<g>
			
				<linearGradient id="SVGID_2_" gradientUnits="userSpaceOnUse" x1="-3626.3408" y1="233.1252" x2="-3407.4678" y2="136.1776" gradientTransform="matrix(1 0 0 -1 3695.9099 275.19)">
				<stop  offset="0" style="stop-color:#EDF7FF"/>
				<stop  offset="1" style="stop-color:#F8FCFF"/>
			</linearGradient>
			<path class="st7" d="M55.3,75.7c0,1.7,0,3.4,0,5.1c0.9,4.3,2.6,7.7,6,10.3l6,5.1c31.7,24,64.2,47.1,95.9,69.3l5.1,2.6
				c2.6,0.9,4.3,1.7,6.8,1.7l0,0c3.4,0,7.7-0.9,10.3-3.4l30-21.4c9.4-7.7,19.7-14.6,30-22.3c3.4-2.6,6-5.1,8.6-8.6
				c7.7-8.6,12-19.7,13.7-30.8c0-3.4,0-7.7,0-12.8V48.3v-0.9l0,0c0,4.3-0.9,8.6-1.7,12.8c-4.3,12-11.1,22.3-21.4,30
				c-19.7,13.7-37.7,28.3-57.4,41.1l-4.3,2.6c-2.6,0.9-4.3,1.7-6.8,1.7h-0.9c-0.9,0-2.6,0-3.4,0c-0.9,0-1.7-0.9-2.6-0.9l-6.8-4.3
				c-23.1-16.3-46.2-32.5-69.3-48.8L63,58.6l-4.3-4.3c-1.7-1.7-3.4-4.3-3.4-7.7v-0.9l0,0V75.7z"/>
			<g>
				<g class="st2">
					<path class="st3" d="M55.3,75.7c0,1.7,0,3.4,0,5.1c0.9,4.3,2.6,7.7,6,10.3l6,5.1c31.7,24,64.2,47.1,95.9,69.3l5.1,2.6
						c2.6,0.9,4.3,1.7,6.8,1.7l0,0c3.4,0,7.7-0.9,10.3-3.4l30-21.4c9.4-7.7,19.7-14.6,30-22.3c3.4-2.6,6-5.1,8.6-8.6
						c7.7-8.6,12-19.7,13.7-30.8c0-3.4,0-7.7,0-12.8V48.3v-0.9l0,0c0,4.3-0.9,8.6-1.7,12.8c-4.3,12-11.1,22.3-21.4,30
						c-19.7,13.7-37.7,28.3-57.4,41.1l-4.3,2.6c-2.6,0.9-4.3,1.7-6.8,1.7h-0.9c-0.9,0-2.6,0-3.4,0c-0.9,0-1.7-0.9-2.6-0.9l-6.8-4.3
						c-23.1-16.3-46.2-32.5-69.3-48.8L63,58.6l-4.3-4.3c-1.7-1.7-3.4-4.3-3.4-7.7v-0.9l0,0V75.7z"/>
				</g>
			</g>
		</g>
		<g>
			
				<linearGradient id="SVGID_3_" gradientUnits="userSpaceOnUse" x1="-120205.2734" y1="84.3666" x2="-115449.7578" y2="84.3666" gradientTransform="matrix(1 0 0 -1 3695.9099 275.19)">
				<stop  offset="0" style="stop-color:#EEFFFE"/>
				<stop  offset="1" style="stop-color:#F2FDFD"/>
			</linearGradient>
			<path class="st8" d="M268.4,139.9c0-0.9,0-2.6,1.7-4.3v19.7c0,3.4,0,7.7-0.9,11.1l0,0c-1.7,12.8-8.6,24.8-18,33.4l-8.6,7.7
				c-10.3,7.7-19.7,15.4-30.8,22.3l0,0L188.8,246l-2.6,0.9l0,0c-2.6,1.7-5.1,2.6-8.6,2.6l0,0c-1.7,0-3.4,0-5.1-0.9l0,0
				c-2.6-0.9-4.3-1.7-6.8-3.4l0,0l-67.6-47.9l-33.4-25.7l0,0c-1.7-1.7-3.4-3.4-5.1-5.1c-1.7-1.7-2.6-4.3-2.6-6.8v-27.4l1.7,2.6l0,0
				c1.7,1.7,3.4,3.4,5.1,5.1L86.1,157l0,0c21.4,16.3,42.8,30.8,64.2,46.2l0,0l14.6,10.3l0,0l6,3.4l0,0c2.6,0.9,5.1,1.7,7.7,0.9l0,0
				c2.6,0,5.1-0.9,7.7-2.6l2.6-1.7l0,0l56.5-41.1l0,0c5.1-3.4,9.4-7.7,12.8-12.8C263.3,152.7,266.7,146.7,268.4,139.9z"/>
			<g>
				<g class="st2">
					<path class="st3" d="M268.4,139.9c0-0.9,0-2.6,1.7-4.3v19.7c0,3.4,0,7.7-0.9,11.1l0,0c-1.7,12.8-8.6,24.8-18,33.4l-8.6,7.7
						c-10.3,7.7-19.7,15.4-30.8,22.3l0,0L188.8,246l-2.6,0.9l0,0c-2.6,1.7-5.1,2.6-8.6,2.6l0,0c-1.7,0-3.4,0-5.1-0.9l0,0
						c-2.6-0.9-4.3-1.7-6.8-3.4l0,0l-67.6-47.9l-33.4-25.7l0,0c-1.7-1.7-3.4-3.4-5.1-5.1c-1.7-1.7-2.6-4.3-2.6-6.8v-27.4l1.7,2.6
						l0,0c1.7,1.7,3.4,3.4,5.1,5.1L86.1,157l0,0c21.4,16.3,42.8,30.8,64.2,46.2l0,0l14.6,10.3l0,0l6,3.4l0,0
						c2.6,0.9,5.1,1.7,7.7,0.9l0,0c2.6,0,5.1-0.9,7.7-2.6l2.6-1.7l0,0l56.5-41.1l0,0c5.1-3.4,9.4-7.7,12.8-12.8
						C263.3,152.7,266.7,146.7,268.4,139.9z"/>
				</g>
			</g>
		</g>
	</g>
	<g>
		<g>
			<path class="st9" d="M55.3,77.4c0,1.7,0,3.4,0,5.1c0.9,4.3,2.6,7.7,6,10.3l6,5.1c31.7,24,64.2,47.1,96.7,69.3l5.1,2.6
				c1.7,0.9,4.3,1.7,6.8,2.6l0,0c3.4,0,7.7-0.9,10.3-3.4l30.8-20.5c9.4-7.7,19.7-14.6,30-22.3c3.4-2.6,6-5.1,8.6-8.6
				c7.7-8.6,12-19.7,13.7-30.8c0-3.4,0-8.6,0-12.8V50c0,4.3-0.9,8.6-2.6,12.8c-4.3,12-11.1,22.3-21.4,30
				c-19.7,13.7-37.7,27.4-57.4,41.1l-4.3,2.6c-2.6,0.9-4.3,1.7-6.8,1.7H176c-0.9,0-2.6,0-3.4,0l-2.6-0.9l-6.8-4.3
				c-23.1-16.3-46.2-32.5-69.3-49.7l-30-23.1L59.6,56c-1.7-1.7-3.4-4.3-3.4-6.8v-0.9l0,0L55.3,77.4z"/>
			<g>
				<g class="st2">
					<path class="st3" d="M55.3,77.4c0,1.7,0,3.4,0,5.1c0.9,4.3,2.6,7.7,6,10.3l6,5.1c31.7,24,64.2,47.1,96.7,69.3l5.1,2.6
						c1.7,0.9,4.3,1.7,6.8,2.6l0,0c3.4,0,7.7-0.9,10.3-3.4l30.8-20.5c9.4-7.7,19.7-14.6,30-22.3c3.4-2.6,6-5.1,8.6-8.6
						c7.7-8.6,12-19.7,13.7-30.8c0-3.4,0-8.6,0-12.8V50c0,4.3-0.9,8.6-2.6,12.8c-4.3,12-11.1,22.3-21.4,30
						c-19.7,13.7-37.7,27.4-57.4,41.1l-4.3,2.6c-2.6,0.9-4.3,1.7-6.8,1.7H176c-0.9,0-2.6,0-3.4,0l-2.6-0.9l-6.8-4.3
						c-23.1-16.3-46.2-32.5-69.3-49.7l-30-23.1L59.6,56c-1.7-1.7-3.4-4.3-3.4-6.8v-0.9l0,0L55.3,77.4z"/>
				</g>
			</g>
		</g>
		<g>
			<path class="st9" d="M55.3,77.4c0,1.7,0,3.4,0,5.1c0.9,4.3,2.6,7.7,6,10.3l6,5.1c31.7,24,64.2,47.1,96.7,69.3l5.1,2.6
				c1.7,0.9,4.3,1.7,6.8,2.6l0,0c3.4,0,7.7-0.9,10.3-3.4l30.8-20.5c9.4-7.7,19.7-14.6,30-22.3c3.4-2.6,6-5.1,8.6-8.6
				c7.7-8.6,12-19.7,13.7-30.8c0-3.4,0-8.6,0-12.8V50c0,4.3-0.9,8.6-2.6,12.8c-4.3,12-11.1,22.3-21.4,30
				c-19.7,13.7-37.7,27.4-57.4,41.1l-4.3,2.6c-2.6,0.9-4.3,1.7-6.8,1.7H176c-0.9,0-2.6,0-3.4,0l-2.6-0.9l-6.8-4.3
				c-23.1-16.3-46.2-32.5-69.3-49.7l-30-23.1L59.6,56c-1.7-1.7-3.4-4.3-3.4-6.8v-0.9L55.3,77.4z"/>
			<g>
				<g class="st2">
					<path class="st3" d="M55.3,77.4c0,1.7,0,3.4,0,5.1c0.9,4.3,2.6,7.7,6,10.3l6,5.1c31.7,24,64.2,47.1,96.7,69.3l5.1,2.6
						c1.7,0.9,4.3,1.7,6.8,2.6l0,0c3.4,0,7.7-0.9,10.3-3.4l30.8-20.5c9.4-7.7,19.7-14.6,30-22.3c3.4-2.6,6-5.1,8.6-8.6
						c7.7-8.6,12-19.7,13.7-30.8c0-3.4,0-8.6,0-12.8V50c0,4.3-0.9,8.6-2.6,12.8c-4.3,12-11.1,22.3-21.4,30
						c-19.7,13.7-37.7,27.4-57.4,41.1l-4.3,2.6c-2.6,0.9-4.3,1.7-6.8,1.7H176c-0.9,0-2.6,0-3.4,0l-2.6-0.9l-6.8-4.3
						c-23.1-16.3-46.2-32.5-69.3-49.7l-30-23.1L59.6,56c-1.7-1.7-3.4-4.3-3.4-6.8v-0.9L55.3,77.4z"/>
				</g>
			</g>
		</g>
		<g>
			<path class="st9" d="M268.4,141.6l1.7-4.3V157c0,3.4,0,7.7-0.9,11.1l0,0c-1.7,12.8-8.6,24.8-18,33.4l-8.6,7.7
				c-10.3,7.7-19.7,14.6-30.8,22.3l0,0l-23.1,16.3l-1.7,0.9l0,0c-2.6,1.7-5.1,2.6-8.6,2.6l0,0c-1.7,0-3.4,0-5.1,0l0,0
				c-2.6-0.9-4.3-1.7-6.8-3.4l0,0l-67.6-47.9l-33.4-25.7l0,0c-1.7-1.7-3.4-3.4-5.1-5.1c-1.7-1.7-1.7-4.3-2.6-6.8c0-1.7,0-2.6,0-4.3
				v-24c0,0.9,0.9,1.7,1.7,2.6l0,0c1.7,1.7,3.4,3.4,5.1,5.1L87,158.7l0,0c21.4,16.3,42.8,30.8,64.2,46.2l0,0l14.6,9.4l0,0l6,3.4l0,0
				c2.6,0.9,5.1,1.7,7.7,0.9l0,0c2.6,0,5.1-0.9,7.7-2.6l2.6-1.7l0,0l56.5-41.1l0,0c5.1-3.4,9.4-7.7,12.8-12.8
				C263.3,155.3,266.7,148.4,268.4,141.6z"/>
			<g>
				<g class="st2">
					<path class="st3" d="M268.4,141.6l1.7-4.3V157c0,3.4,0,7.7-0.9,11.1l0,0c-1.7,12.8-8.6,24.8-18,33.4l-8.6,7.7
						c-10.3,7.7-19.7,14.6-30.8,22.3l0,0l-23.1,16.3l-1.7,0.9l0,0c-2.6,1.7-5.1,2.6-8.6,2.6l0,0c-1.7,0-3.4,0-5.1,0l0,0
						c-2.6-0.9-4.3-1.7-6.8-3.4l0,0l-67.6-47.9l-33.4-25.7l0,0c-1.7-1.7-3.4-3.4-5.1-5.1c-1.7-1.7-1.7-4.3-2.6-6.8
						c0-1.7,0-2.6,0-4.3v-24c0,0.9,0.9,1.7,1.7,2.6l0,0c1.7,1.7,3.4,3.4,5.1,5.1L87,158.7l0,0c21.4,16.3,42.8,30.8,64.2,46.2l0,0
						l14.6,9.4l0,0l6,3.4l0,0c2.6,0.9,5.1,1.7,7.7,0.9l0,0c2.6,0,5.1-0.9,7.7-2.6l2.6-1.7l0,0l56.5-41.1l0,0
						c5.1-3.4,9.4-7.7,12.8-12.8C263.3,155.3,266.7,148.4,268.4,141.6z"/>
				</g>
			</g>
		</g>
	</g>
	<path class="st10" d="M121.2,26l-16.3,11.1c-1.7,1.7-1.7,2.6,0,3.4l1.7,1.7l22.3,15.4c0,0,22.3-12,26.5-14.6c8.6-3.4,17.1-6,26.5-6
		c6,0,12,1.7,18,2.6c7.7,2.6,15.4,6,21.4,10.3l6,4.3l0,0h1.7l0,0l0,0c1.7-2.6,2.6-4.3,3.4-6.8c0-1.7,0-4.3,0-6c0-2.6-0.9-6-1.7-8.6
		c-2.6-4.3-6.8-8.6-10.3-12c-10.3-8.6-22.3-15.4-35.1-18.8c-3.4,0-6.8,0-9.4,0C156.3,5.5,137.5,13.2,121.2,26z"/>
	<path class="st11" d="M55.3,73.1c0,1.7,0,3.4,0,5.1c0.9,4.3,2.6,7.7,6,10.3l6,5.1c30.8,24,63.4,47.1,95.9,69.3l5.1,2.6
		c1.7,0.9,4.3,1.7,6.8,2.6l0,0c3.4,0,7.7-0.9,10.3-3.4l30-21.4c9.4-7.7,19.7-14.6,30-22.3c12-9.4,20.5-24,22.3-39.4
		c0-3.4,0-7.7,0-12V46.6c0,4.3-0.9,8.6-2.6,12.8c-3.4,12-10.3,22.3-20.5,30c-19.7,13.7-37.7,27.4-57.4,41.1l-4.3,2.6
		c-2.6,0.9-4.3,1.7-6.8,1.7h-0.9c-0.9,0-2.6,0-3.4,0l-2.6-0.9l-6-5.1C140,112.5,116.9,96.2,94.7,80l-30-23.1l-4.3-3.4
		c-1.7-1.7-3.4-4.3-3.4-7.7l0,0l0,0l0,0L55.3,73.1z"/>
	<path class="st11" d="M267.6,137.3c0.9-1.7,0.9-2.6,0.9-4.3v19.7c0,3.4,0,7.7,0,11.1l0,0c-1.7,12.8-8.6,24.8-18,33.4l-8.6,6.8
		c-10.3,7.7-19.7,15.4-30.8,22.3l0,0l-22.3,16.3l-1.7,0.9l0,0c-2.6,1.7-5.1,2.6-8.6,2.6l0,0c-1.7,0-3.4,0-5.1,0l0,0
		c-2.6-0.9-4.3-1.7-6.8-3.4l0,0l-67.6-47.9l-34.2-26.5l0,0c-1.7-1.7-3.4-3.4-5.1-5.1c-1.7-1.7-2.6-4.3-2.6-6.8c0-1.7,0-2.6,0-4.3
		v-24c0,0.9,0.9,1.7,1.7,2.6l0,0c1.7,1.7,3.4,3.4,5.1,5.1l22.3,16.3l0,0c21.4,15.4,42.8,30.8,64.2,46.2l0,0l14.6,9.4l0,0l6,3.4l0,0
		c2.6,0.9,5.1,1.7,7.7,0.9l0,0c2.6,0,5.1-0.9,7.7-2.6l2.6-1.7l0,0l56.5-40.2l0,0c5.1-3.4,9.4-7.7,12.8-12.8
		C262.5,150.2,265.9,144.2,267.6,137.3z"/>
</g>
</svg>
