<?xml version="1.0" encoding="utf-8"?>
<!-- Generator: Adobe Illustrator 25.0.1, SVG Export Plug-In . SVG Version: 6.00 Build 0)  -->
<svg version="1.1" id="Layer_1" xmlns="http://www.w3.org/2000/svg" xmlns:xlink="http://www.w3.org/1999/xlink" x="0px" y="0px"
	 viewBox="0 0 480 480" style="enable-background:new 0 0 480 480;" xml:space="preserve">
<style type="text/css">
	.st0{fill:url(#SVGID_1_);}
	.st1{fill:#A71435;}
	.st2{opacity:0.15;}
	.st3{fill:#282525;}
	.st4{opacity:0.9;}
	.st5{fill:#D9DCDD;}
	.st6{fill:#0BE8F9;}
	.st7{fill:none;stroke:#000000;stroke-width:0.3;stroke-miterlimit:10;}
	.st8{fill:url(#SVGID_2_);}
	.st9{fill:url(#SVGID_3_);}
	.st10{fill:url(#SVGID_4_);}
	.st11{fill:#6A8189;}
	.st12{fill:url(#SVGID_5_);}
	.st13{fill:url(#SVGID_6_);}
	.st14{fill:url(#SVGID_7_);}
</style>
<linearGradient id="SVGID_1_" gradientUnits="userSpaceOnUse" x1="240" y1="479.8898" x2="240" y2="-221.9282" gradientTransform="matrix(1 0 0 -1 0 479.8898)">
	<stop  offset="0" style="stop-color:#08021E"/>
	<stop  offset="1" style="stop-color:#1F0777"/>
</linearGradient>
<circle class="st0" cx="240" cy="240" r="240"/>
<g>
	<path class="st1" d="M1,0.6"/>
	<path class="st1" d="M1,0.6"/>
	<g class="st2">
		<g>
			<path class="st3" d="M153.7,182.9v26.3c0.7,3.3,2.6,5.9,5.3,8.6l4.6,3.9c24.4,19.1,50,36.9,75.7,54.6l3.9,2
				c1.3,0.7,3.3,1.3,5.3,1.3l0,0c3.3,0,5.9-0.7,8.6-2.6l23.7-16.5c7.2-5.9,15.8-11.2,23.7-17.8c2.6-2,4.6-3.9,7.2-6.6
				c5.9-7.2,9.2-15.1,10.5-24.4c0-2.6,0-6.6,0-9.9v-18.4c0-0.7,0-0.7,0-1.3l0,0c0,3.3-0.7,7.2-2,10.5c-2.6,9.9-8.6,17.8-16.5,23.7
				c-15.1,11.2-30.3,21.7-45.4,32.3l-3.3,2c-2,0.7-3.3,1.3-5.3,1.3h-0.7c-0.7,0-2,0-2.6,0l-2-0.7l-5.3-3.3
				c-18.4-12.5-36.2-25.7-54-38.8l-23.7-17.8l-3.3-3.3C155,187.5,154.4,185.5,153.7,182.9v-0.7l0,0l0,0V182.9z"/>
			<g>
				<g class="st4">
					<path class="st5" d="M153.7,182.9v26.3c0.7,3.3,2.6,5.9,5.3,8.6l4.6,3.9c24.4,19.1,50,36.9,75.7,54.6l3.9,2
						c1.3,0.7,3.3,1.3,5.3,1.3l0,0c3.3,0,5.9-0.7,8.6-2.6l23.7-16.5c7.2-5.9,15.8-11.2,23.7-17.8c2.6-2,4.6-3.9,7.2-6.6
						c5.9-7.2,9.2-15.1,10.5-24.4c0-2.6,0-6.6,0-9.9v-18.4c0-0.7,0-0.7,0-1.3l0,0c0,3.3-0.7,7.2-2,10.5c-2.6,9.9-8.6,17.8-16.5,23.7
						c-15.1,11.2-30.3,21.7-45.4,32.3l-3.3,2c-2,0.7-3.3,1.3-5.3,1.3h-0.7c-0.7,0-2,0-2.6,0l-2-0.7l-5.3-3.3
						c-18.4-12.5-36.2-25.7-54-38.8l-23.7-17.8l-3.3-3.3C155,187.5,154.4,185.5,153.7,182.9v-0.7l0,0l0,0V182.9z"/>
				</g>
			</g>
		</g>
		<g>
			<path class="st3" d="M320.9,255.3c0,0,0-2,1.3-3.3v15.1c0,2.6,0,5.9-0.7,8.6l0,0c-1.3,9.9-6.6,19.7-14.5,26.3l-6.6,5.9
				c-7.9,5.9-16.5,11.8-24.4,17.8l0,0l-17.8,12.5l-1.3,0.7l0,0c-2,1.3-4.6,2-6.6,2l0,0c-1.3,0-2.6,0-3.9-0.7l0,0
				c-2-0.7-3.3-1.3-5.3-2.6l0,0l-53.3-37.5l-26.3-19.7l0,0c-3.3-2-5.3-5.3-5.3-9.2c0-1.3,0-2,0-3.3v-18.4c0,0.7,0.7,1.3,1.3,2l0,0
				c1.3,1.3,2.6,2.6,3.9,3.9l17.1,13.2l0,0c16.5,12.5,33.6,24.4,50.7,36.2l0,0l11.2,7.9l0,0l4.6,2.6l0,0c2,0.7,3.9,1.3,5.9,0.7l0,0
				c2,0,3.9-0.7,5.9-2l2-1.3l0,0l44.1-31.6l0,0C311,274.4,317.6,265.2,320.9,255.3L320.9,255.3z"/>
			<g>
				<g class="st4">
					<path class="st5" d="M320.9,255.3c0,0,0-2,1.3-3.3v15.1c0,2.6,0,5.9-0.7,8.6l0,0c-1.3,9.9-6.6,19.7-14.5,26.3l-6.6,5.9
						c-7.9,5.9-16.5,11.8-24.4,17.8l0,0l-17.8,12.5l-1.3,0.7l0,0c-2,1.3-4.6,2-6.6,2l0,0c-1.3,0-2.6,0-3.9-0.7l0,0
						c-2-0.7-3.3-1.3-5.3-2.6l0,0l-53.3-37.5l-26.3-19.7l0,0c-3.3-2-5.3-5.3-5.3-9.2c0-1.3,0-2,0-3.3v-18.4c0,0.7,0.7,1.3,1.3,2l0,0
						c1.3,1.3,2.6,2.6,3.9,3.9l17.1,13.2l0,0c16.5,12.5,33.6,24.4,50.7,36.2l0,0l11.2,7.9l0,0l4.6,2.6l0,0c2,0.7,3.9,1.3,5.9,0.7
						l0,0c2,0,3.9-0.7,5.9-2l2-1.3l0,0l44.1-31.6l0,0C311,274.4,317.6,265.2,320.9,255.3L320.9,255.3z"/>
				</g>
			</g>
		</g>
		<path class="st6" d="M206.4,169.7l-12.5,8.6c-0.7,0.7-1.3,2,0,2.6l1.3,0.7l16.5,11.8c0,0,16.5-9.2,20.4-10.5
			c6.6-2.6,13.2-4.6,19.7-4.6c4.6,0,9.2,1.3,13.8,2c5.9,2,11.2,3.9,16.5,7.9l4.6,3.3l0,0h1.3h0.7l0,0c1.3-2,2-3.3,2.6-5.3
			c0-1.3,0-3.3,0-4.6c0-2-0.7-4.6-1.3-6.6c-0.7-2-2-3.9-3.9-5.3l-2.6-2c-3.9-3.9-8.6-6.6-13.2-9.2l-3.9-2
			c-6.6-2.6-13.2-3.9-20.4-3.9C231.4,154.6,218.2,160.5,206.4,169.7z"/>
		<path class="st7" d="M206.4,169.7l-12.5,8.6c-0.7,0.7-1.3,2,0,2.6l1.3,0.7l16.5,11.8c0,0,16.5-9.2,20.4-10.5
			c6.6-2.6,13.2-4.6,19.7-4.6c4.6,0,9.2,1.3,13.8,2c5.9,2,11.2,3.9,16.5,7.9l4.6,3.3l0,0h1.3h0.7l0,0c1.3-2,2-3.3,2.6-5.3
			c0-1.3,0-3.3,0-4.6c0-2-0.7-4.6-1.3-6.6c-0.7-2-2-3.9-3.9-5.3l-2.6-2c-3.9-3.9-8.6-6.6-13.2-9.2l-3.9-2
			c-6.6-2.6-13.2-3.9-20.4-3.9C231.4,154.6,218.2,160.5,206.4,169.7z"/>
	</g>
	<g>
		<g>
			
				<linearGradient id="SVGID_2_" gradientUnits="userSpaceOnUse" x1="-3527.9177" y1="320.4047" x2="-3359.6252" y2="245.8611" gradientTransform="matrix(1 0 0 -1 3695.9099 499.19)">
				<stop  offset="0" style="stop-color:#EDF7FF"/>
				<stop  offset="1" style="stop-color:#F8FCFF"/>
			</linearGradient>
			<path class="st8" d="M157,204.6c0,1.3,0,2.6,0,3.9c0.7,3.3,2,5.9,4.6,7.9l4.6,3.9c24.4,18.4,49.4,36.2,73.7,53.3l3.9,2
				c2,0.7,3.3,1.3,5.3,1.3l0,0c2.6,0,5.9-0.7,7.9-2.6l23-16.5c7.2-5.9,15.1-11.2,23-17.1c2.6-2,4.6-3.9,6.6-6.6
				c5.9-6.6,9.2-15.1,10.5-23.7c0-2.6,0-5.9,0-9.9v-17.1v-0.7l0,0c0,3.3-0.7,6.6-1.3,9.9c-3.3,9.2-8.6,17.1-16.5,23
				c-15.1,10.5-29,21.7-44.1,31.6l-3.3,2c-2,0.7-3.3,1.3-5.3,1.3h-0.7c-0.7,0-2,0-2.6,0c-0.7,0-1.3-0.7-2-0.7l-5.3-3.3
				c-17.8-12.5-35.5-25-53.3-37.5l-23-17.8l-3.3-3.3c-1.3-1.3-2.6-3.3-2.6-5.9v-0.7l0,0V204.6z"/>
			<g>
				<g class="st4">
					<path class="st5" d="M157,204.6c0,1.3,0,2.6,0,3.9c0.7,3.3,2,5.9,4.6,7.9l4.6,3.9c24.4,18.4,49.4,36.2,73.7,53.3l3.9,2
						c2,0.7,3.3,1.3,5.3,1.3l0,0c2.6,0,5.9-0.7,7.9-2.6l23-16.5c7.2-5.9,15.1-11.2,23-17.1c2.6-2,4.6-3.9,6.6-6.6
						c5.9-6.6,9.2-15.1,10.5-23.7c0-2.6,0-5.9,0-9.9v-17.1v-0.7l0,0c0,3.3-0.7,6.6-1.3,9.9c-3.3,9.2-8.6,17.1-16.5,23
						c-15.1,10.5-29,21.7-44.1,31.6l-3.3,2c-2,0.7-3.3,1.3-5.3,1.3h-0.7c-0.7,0-2,0-2.6,0c-0.7,0-1.3-0.7-2-0.7l-5.3-3.3
						c-17.8-12.5-35.5-25-53.3-37.5l-23-17.8l-3.3-3.3c-1.3-1.3-2.6-3.3-2.6-5.9v-0.7l0,0V204.6z"/>
				</g>
			</g>
		</g>
		<g>
			
				<linearGradient id="SVGID_3_" gradientUnits="userSpaceOnUse" x1="-3527.9177" y1="320.4047" x2="-3359.6252" y2="245.8611" gradientTransform="matrix(1 0 0 -1 3695.9099 499.19)">
				<stop  offset="0" style="stop-color:#EDF7FF"/>
				<stop  offset="1" style="stop-color:#F8FCFF"/>
			</linearGradient>
			<path class="st9" d="M157,204.6c0,1.3,0,2.6,0,3.9c0.7,3.3,2,5.9,4.6,7.9l4.6,3.9c24.4,18.4,49.4,36.2,73.7,53.3l3.9,2
				c2,0.7,3.3,1.3,5.3,1.3l0,0c2.6,0,5.9-0.7,7.9-2.6l23-16.5c7.2-5.9,15.1-11.2,23-17.1c2.6-2,4.6-3.9,6.6-6.6
				c5.9-6.6,9.2-15.1,10.5-23.7c0-2.6,0-5.9,0-9.9v-17.1v-0.7l0,0c0,3.3-0.7,6.6-1.3,9.9c-3.3,9.2-8.6,17.1-16.5,23
				c-15.1,10.5-29,21.7-44.1,31.6l-3.3,2c-2,0.7-3.3,1.3-5.3,1.3h-0.7c-0.7,0-2,0-2.6,0c-0.7,0-1.3-0.7-2-0.7l-5.3-3.3
				c-17.8-12.5-35.5-25-53.3-37.5l-23-17.8l-3.3-3.3c-1.3-1.3-2.6-3.3-2.6-5.9v-0.7l0,0V204.6z"/>
			<g>
				<g class="st4">
					<path class="st5" d="M157,204.6c0,1.3,0,2.6,0,3.9c0.7,3.3,2,5.9,4.6,7.9l4.6,3.9c24.4,18.4,49.4,36.2,73.7,53.3l3.9,2
						c2,0.7,3.3,1.3,5.3,1.3l0,0c2.6,0,5.9-0.7,7.9-2.6l23-16.5c7.2-5.9,15.1-11.2,23-17.1c2.6-2,4.6-3.9,6.6-6.6
						c5.9-6.6,9.2-15.1,10.5-23.7c0-2.6,0-5.9,0-9.9v-17.1v-0.7l0,0c0,3.3-0.7,6.6-1.3,9.9c-3.3,9.2-8.6,17.1-16.5,23
						c-15.1,10.5-29,21.7-44.1,31.6l-3.3,2c-2,0.7-3.3,1.3-5.3,1.3h-0.7c-0.7,0-2,0-2.6,0c-0.7,0-1.3-0.7-2-0.7l-5.3-3.3
						c-17.8-12.5-35.5-25-53.3-37.5l-23-17.8l-3.3-3.3c-1.3-1.3-2.6-3.3-2.6-5.9v-0.7l0,0V204.6z"/>
				</g>
			</g>
		</g>
		<g>
			
				<linearGradient id="SVGID_4_" gradientUnits="userSpaceOnUse" x1="-93166.0859" y1="206.0234" x2="-89509.5469" y2="206.0234" gradientTransform="matrix(1 0 0 -1 3695.9099 499.19)">
				<stop  offset="0" style="stop-color:#EEFFFE"/>
				<stop  offset="1" style="stop-color:#F2FDFD"/>
			</linearGradient>
			<path class="st10" d="M320.9,254c0-0.7,0-2,1.3-3.3v15.1c0,2.6,0,5.9-0.7,8.6l0,0c-1.3,9.9-6.6,19.1-13.8,25.7l-6.6,5.9
				c-7.9,5.9-15.1,11.8-23.7,17.1l0,0l-17.8,12.5l-2,0.7l0,0c-2,1.3-3.9,2-6.6,2l0,0c-1.3,0-2.6,0-3.9-0.7l0,0
				c-2-0.7-3.3-1.3-5.3-2.6l0,0l-52-36.9l-25.7-19.7l0,0c-1.3-1.3-2.6-2.6-3.9-3.9c-1.3-1.3-2-3.3-2-5.3v-21.1l1.3,2l0,0
				c1.3,1.3,2.6,2.6,3.9,3.9l17.1,13.2l0,0c16.5,12.5,32.9,23.7,49.4,35.5l0,0l11.2,7.9l0,0l4.6,2.6l0,0c2,0.7,3.9,1.3,5.9,0.7l0,0
				c2,0,3.9-0.7,5.9-2l2-1.3l0,0l43.4-31.6l0,0c3.9-2.6,7.2-5.9,9.9-9.9C317,263.9,319.6,259.3,320.9,254z"/>
			<g>
				<g class="st4">
					<path class="st5" d="M320.9,254c0-0.7,0-2,1.3-3.3v15.1c0,2.6,0,5.9-0.7,8.6l0,0c-1.3,9.9-6.6,19.1-13.8,25.7l-6.6,5.9
						c-7.9,5.9-15.1,11.8-23.7,17.1l0,0l-17.8,12.5l-2,0.7l0,0c-2,1.3-3.9,2-6.6,2l0,0c-1.3,0-2.6,0-3.9-0.7l0,0
						c-2-0.7-3.3-1.3-5.3-2.6l0,0l-52-36.9l-25.7-19.7l0,0c-1.3-1.3-2.6-2.6-3.9-3.9c-1.3-1.3-2-3.3-2-5.3v-21.1l1.3,2l0,0
						c1.3,1.3,2.6,2.6,3.9,3.9l17.1,13.2l0,0c16.5,12.5,32.9,23.7,49.4,35.5l0,0l11.2,7.9l0,0l4.6,2.6l0,0c2,0.7,3.9,1.3,5.9,0.7
						l0,0c2,0,3.9-0.7,5.9-2l2-1.3l0,0l43.4-31.6l0,0c3.9-2.6,7.2-5.9,9.9-9.9C317,263.9,319.6,259.3,320.9,254z"/>
				</g>
			</g>
		</g>
	</g>
	<g>
		<g>
			<path class="st11" d="M157,205.9c0,1.3,0,2.6,0,3.9c0.7,3.3,2,5.9,4.6,7.9l4.6,3.9c24.4,18.4,49.4,36.2,74.4,53.3l3.9,2
				c1.3,0.7,3.3,1.3,5.3,2l0,0c2.6,0,5.9-0.7,7.9-2.6l23.7-15.8c7.2-5.9,15.1-11.2,23-17.1c2.6-2,4.6-3.9,6.6-6.6
				c5.9-6.6,9.2-15.1,10.5-23.7c0-2.6,0-6.6,0-9.9v-18.4c0,3.3-0.7,6.6-2,9.9c-3.3,9.2-8.6,17.1-16.5,23
				c-15.1,10.5-29,21.1-44.1,31.6l-3.3,2c-2,0.7-3.3,1.3-5.3,1.3h-0.7c-0.7,0-2,0-2.6,0l-2-0.7l-5.3-3.3
				c-17.8-12.5-35.5-25-53.3-38.2l-23-17.8l-3.3-3.3c-1.3-1.3-2.6-3.3-2.6-5.3v-0.7l0,0L157,205.9z"/>
			<g>
				<g class="st4">
					<path class="st5" d="M157,205.9c0,1.3,0,2.6,0,3.9c0.7,3.3,2,5.9,4.6,7.9l4.6,3.9c24.4,18.4,49.4,36.2,74.4,53.3l3.9,2
						c1.3,0.7,3.3,1.3,5.3,2l0,0c2.6,0,5.9-0.7,7.9-2.6l23.7-15.8c7.2-5.9,15.1-11.2,23-17.1c2.6-2,4.6-3.9,6.6-6.6
						c5.9-6.6,9.2-15.1,10.5-23.7c0-2.6,0-6.6,0-9.9v-18.4c0,3.3-0.7,6.6-2,9.9c-3.3,9.2-8.6,17.1-16.5,23
						c-15.1,10.5-29,21.1-44.1,31.6l-3.3,2c-2,0.7-3.3,1.3-5.3,1.3h-0.7c-0.7,0-2,0-2.6,0l-2-0.7l-5.3-3.3
						c-17.8-12.5-35.5-25-53.3-38.2l-23-17.8l-3.3-3.3c-1.3-1.3-2.6-3.3-2.6-5.3v-0.7l0,0L157,205.9z"/>
				</g>
			</g>
		</g>
		<g>
			<path class="st11" d="M157,205.9c0,1.3,0,2.6,0,3.9c0.7,3.3,2,5.9,4.6,7.9l4.6,3.9c24.4,18.4,49.4,36.2,74.4,53.3l3.9,2
				c1.3,0.7,3.3,1.3,5.3,2l0,0c2.6,0,5.9-0.7,7.9-2.6l23.7-15.8c7.2-5.9,15.1-11.2,23-17.1c2.6-2,4.6-3.9,6.6-6.6
				c5.9-6.6,9.2-15.1,10.5-23.7c0-2.6,0-6.6,0-9.9v-18.4c0,3.3-0.7,6.6-2,9.9c-3.3,9.2-8.6,17.1-16.5,23
				c-15.1,10.5-29,21.1-44.1,31.6l-3.3,2c-2,0.7-3.3,1.3-5.3,1.3h-0.7c-0.7,0-2,0-2.6,0l-2-0.7l-5.3-3.3
				c-17.8-12.5-35.5-25-53.3-38.2l-23-17.8l-3.3-3.3c-1.3-1.3-2.6-3.3-2.6-5.3v-0.7L157,205.9z"/>
			<g>
				<g class="st4">
					<path class="st5" d="M157,205.9c0,1.3,0,2.6,0,3.9c0.7,3.3,2,5.9,4.6,7.9l4.6,3.9c24.4,18.4,49.4,36.2,74.4,53.3l3.9,2
						c1.3,0.7,3.3,1.3,5.3,2l0,0c2.6,0,5.9-0.7,7.9-2.6l23.7-15.8c7.2-5.9,15.1-11.2,23-17.1c2.6-2,4.6-3.9,6.6-6.6
						c5.9-6.6,9.2-15.1,10.5-23.7c0-2.6,0-6.6,0-9.9v-18.4c0,3.3-0.7,6.6-2,9.9c-3.3,9.2-8.6,17.1-16.5,23
						c-15.1,10.5-29,21.1-44.1,31.6l-3.3,2c-2,0.7-3.3,1.3-5.3,1.3h-0.7c-0.7,0-2,0-2.6,0l-2-0.7l-5.3-3.3
						c-17.8-12.5-35.5-25-53.3-38.2l-23-17.8l-3.3-3.3c-1.3-1.3-2.6-3.3-2.6-5.3v-0.7L157,205.9z"/>
				</g>
			</g>
		</g>
		<g>
			<path class="st11" d="M320.9,255.3l1.3-3.3v15.1c0,2.6,0,5.9-0.7,8.6l0,0c-1.3,9.9-6.6,19.1-13.8,25.7l-6.6,5.9
				c-7.9,5.9-15.1,11.2-23.7,17.1l0,0l-17.8,12.5l-1.3,0.7l0,0c-2,1.3-3.9,2-6.6,2l0,0c-1.3,0-2.6,0-3.9,0l0,0
				c-2-0.7-3.3-1.3-5.3-2.6l0,0l-52-36.9l-25.7-19.7l0,0c-1.3-1.3-2.6-2.6-3.9-3.9c-1.3-1.3-1.3-3.3-2-5.3c0-1.3,0-2,0-3.3v-18.4
				c0,0.7,0.7,1.3,1.3,2l0,0c1.3,1.3,2.6,2.6,3.9,3.9l17.1,13.2l0,0c16.5,12.5,32.9,23.7,49.4,35.5l0,0l11.2,7.2l0,0l4.6,2.6l0,0
				c2,0.7,3.9,1.3,5.9,0.7l0,0c2,0,3.9-0.7,5.9-2l2-1.3l0,0l43.4-31.6l0,0c3.9-2.6,7.2-5.9,9.9-9.9
				C317,265.8,319.6,260.6,320.9,255.3z"/>
			<g>
				<g class="st4">
					<path class="st5" d="M320.9,255.3l1.3-3.3v15.1c0,2.6,0,5.9-0.7,8.6l0,0c-1.3,9.9-6.6,19.1-13.8,25.7l-6.6,5.9
						c-7.9,5.9-15.1,11.2-23.7,17.1l0,0l-17.8,12.5l-1.3,0.7l0,0c-2,1.3-3.9,2-6.6,2l0,0c-1.3,0-2.6,0-3.9,0l0,0
						c-2-0.7-3.3-1.3-5.3-2.6l0,0l-52-36.9l-25.7-19.7l0,0c-1.3-1.3-2.6-2.6-3.9-3.9c-1.3-1.3-1.3-3.3-2-5.3c0-1.3,0-2,0-3.3v-18.4
						c0,0.7,0.7,1.3,1.3,2l0,0c1.3,1.3,2.6,2.6,3.9,3.9l17.1,13.2l0,0c16.5,12.5,32.9,23.7,49.4,35.5l0,0l11.2,7.2l0,0l4.6,2.6l0,0
						c2,0.7,3.9,1.3,5.9,0.7l0,0c2,0,3.9-0.7,5.9-2l2-1.3l0,0l43.4-31.6l0,0c3.9-2.6,7.2-5.9,9.9-9.9
						C317,265.8,319.6,260.6,320.9,255.3z"/>
				</g>
			</g>
		</g>
	</g>
	
		<linearGradient id="SVGID_5_" gradientUnits="userSpaceOnUse" x1="-58207.4609" y1="329.7745" x2="-56869.1797" y2="329.7745" gradientTransform="matrix(1 0 0 -1 3695.9099 499.19)">
		<stop  offset="0" style="stop-color:#57B89D"/>
		<stop  offset="1" style="stop-color:#12FFFF"/>
	</linearGradient>
	<path class="st12" d="M207.7,166.5l-12.5,8.6c-1.3,1.3-1.3,2,0,2.6l1.3,1.3l17.1,11.8c0,0,17.1-9.2,20.4-11.2
		c6.6-2.6,13.2-4.6,20.4-4.6c4.6,0,9.2,1.3,13.8,2c5.9,2,11.8,4.6,16.5,7.9l4.6,3.3l0,0h1.3l0,0l0,0c1.3-2,2-3.3,2.6-5.3
		c0-1.3,0-3.3,0-4.6c0-2-0.7-4.6-1.3-6.6c-2-3.3-5.3-6.6-7.9-9.2c-7.9-6.6-17.1-11.8-27-14.5c-2.6,0-5.3,0-7.2,0
		C234.7,150.7,220.2,156.6,207.7,166.5z"/>
	
		<linearGradient id="SVGID_6_" gradientUnits="userSpaceOnUse" x1="-3527.8259" y1="321.6379" x2="-3360.446" y2="247.5499" gradientTransform="matrix(1 0 0 -1 3695.9099 499.19)">
		<stop  offset="0" style="stop-color:#EDF7FF"/>
		<stop  offset="1" style="stop-color:#F8FCFF"/>
	</linearGradient>
	<path class="st13" d="M157,202.7c0,1.3,0,2.6,0,3.9c0.7,3.3,2,5.9,4.6,7.9l4.6,3.9c23.7,18.4,48.7,36.2,73.7,53.3l3.9,2
		c1.3,0.7,3.3,1.3,5.3,2l0,0c2.6,0,5.9-0.7,7.9-2.6l23-16.5c7.2-5.9,15.1-11.2,23-17.1c9.2-7.2,15.8-18.4,17.1-30.3
		c0-2.6,0-5.9,0-9.2v-17.8c0,3.3-0.7,6.6-2,9.9c-2.6,9.2-7.9,17.1-15.8,23c-15.1,10.5-29,21.1-44.1,31.6l-3.3,2
		c-2,0.7-3.3,1.3-5.3,1.3h-0.7c-0.7,0-2,0-2.6,0l-2-0.7l-4.6-3.9c-17.8-12.5-35.5-25-52.7-37.5l-23-17.8l-3.3-2.6
		c-1.3-1.3-2.6-3.3-2.6-5.9l0,0l0,0l0,0L157,202.7z"/>
	
		<linearGradient id="SVGID_7_" gradientUnits="userSpaceOnUse" x1="-92646.3672" y1="208.9855" x2="-89010.9766" y2="208.9855" gradientTransform="matrix(1 0 0 -1 3695.9099 499.19)">
		<stop  offset="0" style="stop-color:#EEFFFE"/>
		<stop  offset="1" style="stop-color:#F2FDFD"/>
	</linearGradient>
	<path class="st14" d="M320.3,252c0.7-1.3,0.7-2,0.7-3.3v15.1c0,2.6,0,5.9,0,8.6l0,0c-1.3,9.9-6.6,19.1-13.8,25.7l-6.6,5.3
		c-7.9,5.9-15.1,11.8-23.7,17.1l0,0L259.7,333l-1.3,0.7l0,0c-2,1.3-3.9,2-6.6,2l0,0c-1.3,0-2.6,0-3.9,0l0,0c-2-0.7-3.3-1.3-5.3-2.6
		l0,0l-52-36.9l-26.3-20.4l0,0c-1.3-1.3-2.6-2.6-3.9-3.9c-1.3-1.3-2-3.3-2-5.3c0-1.3,0-2,0-3.3v-18.4c0,0.7,0.7,1.3,1.3,2l0,0
		c1.3,1.3,2.6,2.6,3.9,3.9l17.1,12.5l0,0c16.5,11.8,32.9,23.7,49.4,35.5l0,0l11.2,7.2l0,0l4.6,2.6l0,0c2,0.7,3.9,1.3,5.9,0.7l0,0
		c2,0,3.9-0.7,5.9-2l2-1.3l0,0l43.4-30.9l0,0c3.9-2.6,7.2-5.9,9.9-9.9C316.3,261.9,318.9,257.3,320.3,252z"/>
</g>
</svg>
